<?xml version="1.0" encoding="utf-8"?>
<!-- Generator: Adobe Illustrator 24.1.0, SVG Export Plug-In . SVG Version: 6.00 Build 0)  -->
<svg version="1.1" id="Layer_1" xmlns="http://www.w3.org/2000/svg" xmlns:xlink="http://www.w3.org/1999/xlink" x="0px" y="0px"
	 width="216px" height="216px" viewBox="0 0 216 216" style="enable-background:new 0 0 216 216;" xml:space="preserve">
<g>
	<path d="M13.53,206.99c26.48-46.03,56.86-84.84,85.45-128.77c-9.63-20.46-21.96-58.37-49.04-58.37c-7.82,0-15.34,1.2-22.86,3.01
		l-4.81-6.92C39.71,9.62,57.76,3.6,76.71,3.6c21.66,0,33.7,9.63,43.33,27.98c9.93,18.66,17.15,37.91,25.87,56.86
		c16.85,37.91,35.8,74.92,56.56,111.32l-40.01,12.64l-4.51-0.3c-16.25-39.71-33.4-79.13-51.75-118.54
		c-19.56,32.79-43.63,74.01-56.26,109.52l-33.4,7.82L13.53,206.99z"/>
</g>
<g>
</g>
<g>
</g>
<g>
</g>
<g>
</g>
<g>
</g>
</svg>
